Coordinates
version=1
nRows=14
nColumns=63
inDegrees=yes

Units are S.I. units (second, meters, Newtons, ...)
If the header above contains a line with 'inDegrees', this indicates whether rotational values are in degrees (yes) or radians (no).

endheader
time	pelvis_tilt	pelvis_list	pelvis_rotation	pelvis_tx	pelvis_ty	pelvis_tz	hip_flexion_r	hip_adduction_r	hip_rotation_r	knee_angle_r	knee_angle_r_beta	ankle_angle_r	subtalar_angle_r	mtp_angle_r	hip_flexion_l	hip_adduction_l	hip_rotation_l	knee_angle_l	knee_angle_l_beta	ankle_angle_l	subtalar_angle_l	mtp_angle_l	L5_S1_Flex_Ext	L5_S1_Lat_Bending	L5_S1_axial_rotation	L4_L5_Flex_Ext	L4_L5_Lat_Bending	L4_L5_axial_rotation	L3_L4_Flex_Ext	L3_L4_Lat_Bending	L3_L4_axial_rotation	L2_L3_Flex_Ext	L2_L3_Lat_Bending	L2_L3_axial_rotation	L1_L2_Flex_Ext	L1_L2_Lat_Bending	L1_L2_axial_rotation	L1_T12_Flex_Ext	L1_T12_Lat_Bending	L1_T12_axial_rotation	Abs_r3	Abs_r2	Abs_r1	Abs_t1	Abs_t2	neck_flexion	neck_bending	neck_rotation	arm_flex_r	arm_add_r	arm_rot_r	elbow_flex_r	pro_sup_r	wrist_flex_r	wrist_dev_r	arm_flex_l	arm_add_l	arm_rot_l	elbow_flex_l	pro_sup_l	wrist_flex_l	wrist_dev_l
6.016667	6.347904	4.176674	74.401408	0.075084	1.076488	0.347574	-0.519086	3.459007	-6.501562	16.825153	0.293654	36.472537	18.889623	0.000000	-1.717514	-4.976581	-10.691620	16.782006	0.292901	39.611258	2.549519	0.000000	-0.763065	0.412843	3.800121	-1.417089	0.549081	4.037628	-1.253640	1.003787	4.037628	-0.872107	1.003787	3.325106	-0.708582	0.841870	3.087598	-0.436016	0.639494	2.850091	-5.450499	4.670164	21.135131	0.000000	0.000000	4.912004	10.250634	-39.183023	-29.458891	-30.482506	-50.342529	127.605448	88.848055	7.612603	14.425462	63.525696	38.922678	186.096431	0.069425	1.190372	-69.864610	-24.396834
6.033333	6.412438	4.147827	74.723001	0.074772	1.077115	0.348297	-0.415922	3.541101	-6.737184	16.905127	0.295050	36.308812	18.854732	0.000000	-1.574317	-5.157020	-10.869978	16.890612	0.294797	39.529471	3.023634	0.000000	-0.747217	0.462717	3.888668	-1.387658	0.615414	4.131709	-1.227604	1.125051	4.131709	-0.853995	1.125051	3.402584	-0.693866	0.943573	3.159542	-0.426960	0.716749	2.916501	-5.337300	5.234350	21.627602	0.000000	0.000000	3.947116	9.951699	-39.039650	-28.806945	-29.779748	-48.327604	127.162698	88.756769	8.695754	17.629840	62.261221	38.117327	185.485723	0.069566	1.159113	-69.863246	-24.397977
6.050000	6.431468	4.112608	75.018872	0.074643	1.077638	0.348947	-0.312136	3.589734	-6.908319	16.958153	0.295976	36.206584	18.823707	0.000000	-1.458747	-5.273506	-10.946134	16.934342	0.295560	39.435612	3.386209	0.000000	-0.731936	0.506766	3.982647	-1.359278	0.673998	4.231562	-1.202498	1.232150	4.231562	-0.836530	1.232150	3.484816	-0.679676	1.033396	3.235900	-0.418228	0.784980	2.986985	-5.228146	5.732634	22.150286	0.000000	0.000000	3.040309	9.644246	-38.869601	-27.965241	-29.095606	-46.096176	126.619868	88.848295	9.417675	21.072480	61.106319	37.223951	184.963588	0.069710	1.144328	-69.861367	-24.404971
6.066667	6.391097	4.073054	75.300572	0.074659	1.078035	0.349518	-0.213295	3.588780	-7.035729	16.975206	0.296273	36.172358	18.798146	0.000000	-1.362793	-5.304851	-10.866211	16.918463	0.295283	39.326792	3.578614	0.000000	-0.717736	0.542824	4.083936	-1.332907	0.721956	4.339182	-1.179168	1.319822	4.339182	-0.820300	1.319822	3.573444	-0.666489	1.106926	3.318198	-0.410114	0.840834	3.062952	-5.126714	6.140530	22.713625	0.000000	0.000000	2.209529	9.340559	-38.714885	-26.928070	-28.434362	-43.702485	125.929140	89.012134	9.737020	24.546267	60.025886	36.289519	184.648502	0.069814	1.128425	-69.859439	-24.415859
6.083333	6.316904	4.026886	75.542086	0.074734	1.078315	0.350043	-0.124247	3.557535	-7.103546	16.954234	0.295907	36.184183	18.784131	0.000000	-1.292671	-5.264624	-10.616326	16.838219	0.293882	39.198059	3.542253	0.000000	-0.705339	0.574867	4.201387	-1.309885	0.764573	4.463974	-1.158801	1.397732	4.463974	-0.806132	1.397732	3.676214	-0.654978	1.172269	3.413627	-0.403031	0.890469	3.151040	-5.038165	6.503010	23.366855	0.000000	0.000000	1.455932	9.028538	-38.606433	-25.697978	-27.857289	-41.223758	125.060206	88.957930	9.604285	27.915712	58.960049	35.384696	184.569398	0.069800	1.125415	-69.858146	-24.428818
6.100000	6.221088	3.983920	75.764566	0.074807	1.078509	0.350526	-0.064331	3.505596	-7.133152	16.884991	0.294699	36.216355	18.776046	0.000000	-1.244059	-5.163082	-10.172937	16.716038	0.291750	39.052875	3.263851	0.000000	-0.695864	0.604625	4.335983	-1.292288	0.804152	4.606982	-1.143234	1.470086	4.606982	-0.795303	1.470086	3.793985	-0.646179	1.232952	3.522986	-0.397616	0.936565	3.251987	-4.970484	6.839644	24.115437	0.000000	0.000000	0.733765	8.700707	-38.540130	-24.257591	-27.372787	-38.717305	123.964851	88.472070	9.070752	30.816345	57.838629	34.569842	184.729348	0.069605	1.116857	-69.858180	-24.444408
6.116667	6.105203	3.937412	75.977110	0.074846	1.078606	0.350958	-0.028556	3.436005	-7.136998	16.763901	0.292585	36.254280	18.775369	0.000000	-1.203943	-5.016662	-9.628520	16.558907	0.289007	38.916911	2.867771	0.000000	-0.689021	0.632740	4.484373	-1.279582	0.841544	4.764646	-1.131993	1.538444	4.764646	-0.787483	1.538444	3.923826	-0.639825	1.290284	3.643553	-0.393707	0.980115	3.363280	-4.921611	7.157683	24.940736	0.000000	0.000000	0.071128	8.370161	-38.501617	-22.585795	-27.011127	-36.190102	122.606860	87.346581	8.170084	32.924625	56.643796	33.863931	185.051427	0.069283	1.097335	-69.860425	-24.466988
6.133333	5.946051	3.884544	76.184223	0.074953	1.078569	0.351306	-0.008448	3.331745	-7.120670	16.595136	0.289640	36.305942	18.782311	0.000000	-1.161003	-4.809480	-8.993475	16.369653	0.285704	38.783729	2.341312	0.000000	-0.684381	0.655604	4.639398	-1.270964	0.871953	4.929361	-1.124370	1.594035	4.929361	-0.782179	1.594035	4.059473	-0.635516	1.336907	3.769511	-0.391055	1.015530	3.479549	-4.888467	7.416319	25.802941	0.000000	0.000000	-0.514828	8.061685	-38.427588	-20.635871	-26.751273	-33.612643	120.951566	85.656495	6.924572	34.076647	55.419284	33.235811	185.477341	0.068755	1.065845	-69.867740	-24.495810
6.150000	5.735415	3.813941	76.438441	0.075181	1.078337	0.351508	0.000974	3.195657	-7.123800	16.371727	0.285741	36.383044	18.789313	0.000000	-1.083715	-4.561785	-8.338328	16.179663	0.282388	38.693891	1.835356	0.000000	-0.680698	0.671269	4.770562	-1.264124	0.892788	5.068722	-1.118318	1.632124	5.068722	-0.777969	1.632124	4.174242	-0.632096	1.368852	3.876082	-0.388951	1.039796	3.577922	-4.862155	7.593531	26.532436	0.000000	0.000000	-1.002426	7.793453	-38.199273	-18.305703	-26.604401	-30.797929	118.894139	83.462077	5.267680	34.036073	54.252307	32.594627	185.838424	0.068066	1.035958	-69.897699	-24.538700
6.166667	5.428574	3.692695	76.743966	0.075725	1.077783	0.351483	0.049619	2.995875	-7.148198	16.120047	0.281348	36.530229	18.793602	0.000000	-0.927301	-4.267612	-7.828161	16.011887	0.279460	38.680206	1.542618	0.000000	-0.673520	0.672547	4.844071	-1.250795	0.894487	5.146826	-1.106527	1.635230	5.146826	-0.769766	1.635230	4.238563	-0.625431	1.371457	3.935808	-0.384849	1.041775	3.633054	-4.810888	7.607981	26.941272	0.000000	0.000000	-1.390219	7.572642	-37.650216	-15.457048	-26.450808	-27.536454	116.314196	80.835578	3.209743	32.837988	53.209463	31.780387	186.163221	0.067203	1.016297	-70.489784	-24.451815
6.183333	5.002134	3.490379	77.102903	0.076664	1.076818	0.351151	0.181097	2.714158	-7.201098	15.865219	0.276900	36.776806	18.791014	0.000000	-0.659401	-3.915565	-7.492059	15.872236	0.277023	38.745762	1.487330	0.000000	-0.658862	0.655748	4.827043	-1.223573	0.872145	5.128733	-1.082445	1.594386	5.128733	-0.753014	1.594386	4.223663	-0.611820	1.337201	3.921973	-0.376474	1.015754	3.620282	-4.706188	7.417952	26.846567	0.000000	0.000000	-1.662298	7.408782	-36.622290	-12.001554	-26.149978	-23.664406	113.086380	77.906488	0.812993	30.619485	52.276612	30.664318	186.606765	0.065932	1.018661	-72.690774	-24.236822
6.200000	4.485502	3.235443	77.508996	0.077929	1.075515	0.350623	0.374522	2.372547	-7.284757	15.619043	0.272604	37.113522	18.779649	0.000000	-0.303773	-3.531632	-7.335536	15.776152	0.275346	38.888182	1.671477	0.000000	-0.640444	0.623262	4.741515	-1.189369	0.828938	5.037859	-1.052185	1.515399	5.037859	-0.731963	1.515399	4.148825	-0.594716	1.270956	3.852481	-0.365950	0.965433	3.556136	-4.574628	7.050463	26.370882	0.000000	0.000000	-1.831885	7.330314	-35.273883	-8.056952	-25.736579	-19.362435	109.267103	74.934138	-1.830082	27.753342	51.578221	29.350317	186.579990	0.062429	1.021098	-74.268022	-24.062158
6.216667	3.919492	2.930295	77.964896	0.079441	1.073898	0.349929	0.628537	2.003787	-7.418143	15.398283	0.268751	37.530048	18.769267	0.000000	0.129829	-3.152104	-7.350295	15.729766	0.274536	39.109302	2.097914	0.000000	-0.619615	0.579879	4.589592	-1.150687	0.771239	4.876442	-1.017965	1.409918	4.876442	-0.708158	1.409918	4.015893	-0.575374	1.182490	3.729044	-0.354048	0.898233	3.442194	-4.425847	6.559710	25.525935	0.000000	0.000000	-1.893244	7.303950	-33.633547	-3.691893	-25.124163	-14.895520	104.974866	72.420355	-4.104443	25.132618	51.120667	27.843350	185.615143	0.057914	1.016831	-74.218082	-23.979749
6.233333	3.288130	2.564533	78.460228	0.081150	1.071998	0.349093	0.974997	1.587704	-7.584791	15.232541	0.265858	38.033500	18.735635	0.000000	0.654627	-2.751221	-7.500488	15.729554	0.274532	39.393115	2.716260	0.000000	-0.593436	0.522205	4.385232	-1.102070	0.694533	4.659309	-0.974956	1.269690	4.659309	-0.678238	1.269690	3.837078	-0.551065	1.064881	3.563001	-0.339089	0.808896	3.288924	-4.238853	5.907290	24.389347	0.000000	0.000000	-1.877600	7.343716	-31.825714	0.973422	-24.242699	-10.361752	100.293415	70.418060	-5.871297	23.156070	50.810649	26.206142	183.705816	0.055835	1.000766	-72.623210	-23.924642
